<svg xmlns="http://www.w3.org/2000/svg" width="26" height="26" viewBox="0 0 32 44">
  <defs>
    <linearGradient id="g1" x1="0" y1="0" x2="1" y2="1">
      <stop offset="0" stop-color="#c8ff5a"/>
      <stop offset="0.45" stop-color="#74e63a"/>
      <stop offset="1" stop-color="#1fae39"/>
    </linearGradient>
    <linearGradient id="g2" x1="1" y1="0" x2="0" y2="1">
      <stop offset="0" stop-color="#98ff47"/>
      <stop offset="1" stop-color="#2bc84b"/>
    </linearGradient>
    <filter id="glow" x="-50%" y="-50%" width="200%" height="200%">
      <feGaussianBlur stdDeviation="1.0" result="b"/>
      <feMerge><feMergeNode in="b"/><feMergeNode in="SourceGraphic"/></feMerge>
    </filter>
  </defs>
  <g transform="rotate(135 16 22) scale(.78) translate(4.5 6.2)">
    <path d="M16 1 L29 17 L16 43 L3 17 Z" fill="url(#g1)" stroke="#177b31" stroke-width="1.25" filter="url(#glow)"/>
    <path d="M16 1 L16 22 L3 17 Z" fill="#baff54" opacity="0.95"/>
    <path d="M16 1 L29 17 L16 22 Z" fill="#63dc37" opacity="0.98"/>
    <path d="M3 17 L16 22 L16 43 Z" fill="#42c844" opacity="0.98"/>
    <path d="M29 17 L16 43 L16 22 Z" fill="#249f3c" opacity="0.98"/>
    <path d="M16 2 L16 42" stroke="#ffffff" stroke-opacity="0.35" stroke-width="0.8"/>
    <path d="M4 17 L28 17" stroke="#ffffff" stroke-opacity="0.22" stroke-width="0.7"/>
  </g>
</svg>
